<svg id="visual" viewBox="0 0 900 600" width="900" height="600" xmlns="http://www.w3.org/2000/svg" xmlns:xlink="http://www.w3.org/1999/xlink" version="1.1"><path d="M0 85L82 85L82 175L164 175L164 235L245 235L245 223L327 223L327 109L409 109L409 265L491 265L491 169L573 169L573 271L655 271L655 163L736 163L736 265L818 265L818 265L900 265L900 103L900 0L900 0L818 0L818 0L736 0L736 0L655 0L655 0L573 0L573 0L491 0L491 0L409 0L409 0L327 0L327 0L245 0L245 0L164 0L164 0L82 0L82 0L0 0Z" fill="#fa7268"></path><path d="M0 151L82 151L82 301L164 301L164 355L245 355L245 343L327 343L327 199L409 199L409 325L491 325L491 283L573 283L573 343L655 343L655 277L736 277L736 331L818 331L818 379L900 379L900 217L900 101L900 263L818 263L818 263L736 263L736 161L655 161L655 269L573 269L573 167L491 167L491 263L409 263L409 107L327 107L327 221L245 221L245 233L164 233L164 173L82 173L82 83L0 83Z" fill="#ea5e66"></path><path d="M0 403L82 403L82 481L164 481L164 451L245 451L245 481L327 481L327 457L409 457L409 469L491 469L491 499L573 499L573 463L655 463L655 505L736 505L736 427L818 427L818 475L900 475L900 379L900 215L900 377L818 377L818 329L736 329L736 275L655 275L655 341L573 341L573 281L491 281L491 323L409 323L409 197L327 197L327 341L245 341L245 353L164 353L164 299L82 299L82 149L0 149Z" fill="#d84a64"></path><path d="M0 469L82 469L82 529L164 529L164 541L245 541L245 523L327 523L327 553L409 553L409 541L491 541L491 547L573 547L573 535L655 535L655 547L736 547L736 487L818 487L818 529L900 529L900 475L900 377L900 473L818 473L818 425L736 425L736 503L655 503L655 461L573 461L573 497L491 497L491 467L409 467L409 455L327 455L327 479L245 479L245 449L164 449L164 479L82 479L82 401L0 401Z" fill="#c53762"></path><path d="M0 601L82 601L82 601L164 601L164 601L245 601L245 601L327 601L327 601L409 601L409 601L491 601L491 601L573 601L573 601L655 601L655 601L736 601L736 601L818 601L818 601L900 601L900 601L900 473L900 527L818 527L818 485L736 485L736 545L655 545L655 533L573 533L573 545L491 545L491 539L409 539L409 551L327 551L327 521L245 521L245 539L164 539L164 527L82 527L82 467L0 467Z" fill="#b0235f"></path></svg>